<?xml version="1.0" encoding="UTF-8"?>
<!DOCTYPE svg PUBLIC "-//W3C//DTD SVG 1.1//EN" "http://www.w3.org/Graphics/SVG/1.1/DTD/svg11.dtd">
<!-- Creator: CorelDRAW 2018 (64-Bit) -->
<svg xmlns="http://www.w3.org/2000/svg" xml:space="preserve" width="14.2182mm" height="14.2182mm" version="1.1" style="shape-rendering:geometricPrecision; text-rendering:geometricPrecision; image-rendering:optimizeQuality; fill-rule:evenodd; clip-rule:evenodd"
viewBox="0 0 7725.95 7725.95"
 xmlns:xlink="http://www.w3.org/1999/xlink">
 <defs>
  <style type="text/css">
   <![CDATA[
    .fil2 {fill:#502A1F;fill-rule:nonzero}
    .fil3 {fill:#794438;fill-rule:nonzero}
    .fil1 {fill:#E97900;fill-rule:nonzero}
    .fil0 {fill:#FFB81A;fill-rule:nonzero}
   ]]>
  </style>
 </defs>
 <g id="Layer_x0020_1">
  <metadata id="CorelCorpID_0Corel-Layer"/>
  <g id="_2158163630208">
   <path class="fil0" d="M7725.95 3862.98c0,2133.49 -1729.54,3862.98 -3862.98,3862.98 -2133.44,0 -3862.98,-1729.48 -3862.98,-3862.98 0,-2133.44 1729.54,-3862.98 3862.98,-3862.98 2133.44,0 3862.98,1729.54 3862.98,3862.98z"/>
   <path class="fil1" d="M1046.5 6505.4c704.72,750.85 1705.47,1220.55 2816.47,1220.55 1110.95,0 2111.76,-469.7 2816.47,-1220.55l-5632.94 0z"/>
   <g>
    <path class="fil2" d="M5242.52 5467.32l-2759.14 0c-969.07,0 -1757.41,-692.27 -1757.41,-1543.16l0 -199.1c0,-275.28 223.17,-498.45 498.45,-498.45 275.28,0 498.45,223.17 498.45,498.45l0 199.1c0,296.09 348.31,546.26 760.52,546.26l2759.14 0c412.27,0 760.58,-250.17 760.58,-546.26l0 -199.1c0,-275.28 223.17,-498.45 498.45,-498.45 275.28,0 498.45,223.17 498.45,498.45l0 199.1c0,850.89 -788.45,1543.16 -1757.47,1543.16z"/>
   </g>
   <path class="fil2" d="M5275.29 4097.77l-2824.68 0c-215.4,0 -389.99,-174.64 -389.99,-389.99l0 -1083.56c0,-376.02 304.89,-680.92 680.92,-680.92l2242.82 0c376.08,0 680.97,304.89 680.97,680.92l0 1083.56c0,215.34 -174.59,389.99 -390.04,389.99z"/>
   <g>
    <path class="fil2" d="M1991.67 6479.05l134.16 -285.33c59.07,-125.68 186.87,-206.92 325.7,-206.92l2822.88 0c138.83,0 266.75,81.24 325.76,206.76l134.16 285.49 412.97 0 -208.82 -444.54c-120.47,-255.99 -381.13,-421.5 -664.07,-421.5l-2822.88 0c-282.94,0 -543.6,165.51 -664.02,421.67l-208.88 444.38 413.03 0z"/>
   </g>
   <path class="fil3" d="M2851.19 3029.69c0,60.42 -49.07,109.49 -109.49,109.49 -60.48,0 -109.49,-49.07 -109.49,-109.49 0,-60.42 49.01,-109.44 109.49,-109.44 60.42,0 109.49,49.01 109.49,109.44z"/>
   <path class="fil3" d="M3973.77 3029.69c0,60.42 -49.01,109.49 -109.49,109.49 -60.42,0 -109.44,-49.07 -109.44,-109.49 0,-60.42 49.01,-109.44 109.44,-109.44 60.48,0 109.49,49.01 109.49,109.44z"/>
   <path class="fil3" d="M5096.35 3029.69c0,60.42 -49.01,109.49 -109.49,109.49 -60.42,0 -109.49,-49.07 -109.49,-109.49 0,-60.42 49.07,-109.44 109.49,-109.44 60.48,0 109.49,49.01 109.49,109.44z"/>
  </g>
 </g>
</svg>
